<?xml version="1.0" encoding="UTF-8" standalone="no"?>
<!DOCTYPE svg  PUBLIC '-//W3C//DTD SVG 1.1//EN'  'http://www.w3.org/Graphics/SVG/1.1/DTD/svg11.dtd'>
<svg xmlns="http://www.w3.org/2000/svg">
<defs>
<font id="PilsenPlakat-Regular" horiz-adv-x="489">
<font-face underline-position="-92" font-weight="400" descent="-200" panose-1="2 0 5 6 2 0 0 2 0 4" units-per-em="1000" unicode-range="U+0008-E003" bbox="-70 -131 1415 1253" x-height="704" underline-thickness="70" font-family="PilsenPlakat" ascent="800" cap-height="895"/>
<missing-glyph d="M125 63h250v755h-250v-755zM63 0v880h375v-880h-375z" horiz-adv-x="500"/>
<glyph glyph-name=".notdef" d="M125 63h250v755h-250v-755zM63 0v880h375v-880h-375z" horiz-adv-x="500"/>
<glyph glyph-name=".null" horiz-adv-x="0" unicode=""/>
<glyph glyph-name="nonmarkingreturn" horiz-adv-x="211" unicode=""/>
<glyph glyph-name="ring" d="M103 862q7 -36 39 -51q12 -6 23 -6q16 0 31 12q29 22 28 56q-2 23 -21 41t-42 19q-14 0 -28 -8q-31 -19 -31 -50q0 -6 1 -13zM159 993q47 0 84 -32q40 -36 40 -92q0 -76 -70 -110q-24 -11 -51 -11q-35 0 -60 16q-60 38 -63 100v7q0 61 52 100q34 22 68 22z" horiz-adv-x="319"/>
<glyph glyph-name="dotlessi" horiz-adv-x="260" unicode="" d="M51 704h183v-704h-183v704z"/>
<glyph glyph-name="fraction" d="M487 0h-132l-317 895h132z" horiz-adv-x="524"/>
<glyph glyph-name="fi" d="M513 704v-704h-183v568h-91v-568h-187v568h-33v136h36q0 64 8 94q15 50 65 76q29 16 80 19q10 1 33 1t60 1v-130q-43 -3 -51 -11q-6 -7 -7 -50h270zM393 940q17 5 30 5q29 0 52 -17q39 -29 39 -75q0 -52 -47 -80q-20 -12 -43 -12q-19 -1 -36 7t-30 20q-12 12 -20 30 q-8 17 -8 36q0 65 63 86z" horiz-adv-x="541"/>
<glyph glyph-name="fl" d="M301 766v-1q-43 -3 -51 -11q-6 -7 -7 -50h38v-136h-42v-568h-187v568h-33v136h36q0 69 10 98q15 46 63 72q37 19 117 21q20 1 43 1h49v-1h177v-895h-183v766h-30z" horiz-adv-x="541"/>
<glyph glyph-name="Lslash" d="M0 415l86 36v442h198v-358l45 19l54 -128l-99 -42v-245h152v-139h-350v300l-33 -13z" horiz-adv-x="434"/>
<glyph glyph-name="lslash" d="M0 415l101 42v438h183v-360l46 19l54 -128l-100 -42v-384h-183v306l-47 -19z" horiz-adv-x="385"/>
<glyph glyph-name="Zcaron" d="M319 1015h-183l-119 191h133l79 -79l77 77h130zM53 895h338l-111 -709h111v-186h-343l108 712h-103v183z" horiz-adv-x="417"/>
<glyph glyph-name="zcaron" d="M301 813h-183l-119 191h133l78 -79l78 78h130zM46 704h303l-101 -587h96v-117h-306l98 579h-90v125z" horiz-adv-x="371"/>
<glyph glyph-name="space" horiz-adv-x="481" unicode=" "/>
<glyph glyph-name="exclam" horiz-adv-x="277" unicode="!" d="M139 198q34 0 60 -21q40 -33 40 -79q0 -7 -1 -14q-7 -57 -61 -80q-18 -7 -42 -7q-32 0 -54 16q-43 33 -43 80q0 6 1 12q5 39 33 66t67 27zM166 267h-44l-61 377q-7 42 -10 71t-3 46q0 92 50 125q18 12 47 12q31 0 51 -14q45 -32 45 -123q0 -38 -12 -110z"/>
<glyph glyph-name="quotedbl" horiz-adv-x="381" unicode='&quot;' d="M290 545h-30l-31 169q-15 82 -15 105q0 37 13 54q15 20 42 20h5q33 -3 49 -25q11 -17 11 -47q0 -9 -4 -33t-10 -66zM130 545h-30l-31 169q-15 79 -15 102q0 39 15 57q13 20 40 20h7q30 -1 47 -25q11 -17 11 -47q0 -9 -4 -33t-10 -66z"/>
<glyph glyph-name="numbersign" horiz-adv-x="816" unicode="#" d="M341 370h122l47 129h-124zM381 814h117l-77 -217h123l77 217h117l-77 -217h145l-36 -98h-144l-47 -129h145l-35 -98h-144l-77 -217h-117l77 217h-123l-78 -217h-116l77 217h-144l36 98h144l45 129h-143l35 98h143z"/>
<glyph glyph-name="dollar" horiz-adv-x="572" unicode="$" d="M306 132q8 -2 18 2t18 13q8 8 16 18q6 10 9 19q1 5 1 10t1 10q0 48 -63 114v-186zM238 750q-23 -21 -23 -53q0 -35 61 -105v169q-4 1 -8 1q-13 0 -30 -12zM276 948h30v-48q144 -20 187 -80q36 -53 36 -202h-157q0 66 -4 83q-6 28 -19 41q-23 19 -38 19q-3 0 -5 -1v-202 l101 -111q37 -43 62 -73t39 -51q34 -53 34 -102q0 -44 -25 -100q-30 -66 -89 -96q-18 -8 -48 -17t-74 -17v-81h-30v83q-154 13 -206 110q-23 40 -27 81q-1 10 -1 34t-1 64h160q1 -34 1 -56t1 -30q8 -29 22 -42q22 -21 51 -21v220l-80 79q-75 73 -107 124q-39 61 -39 122 q0 34 12 72q39 119 164 146q17 4 50 4v48z"/>
<glyph glyph-name="percent" horiz-adv-x="928" unicode="%" d="M180 639v-75t2 -39q3 -41 16 -45q12 -5 23 -5q9 0 17 4q15 11 18 55q1 9 1 36v72v74q0 27 -1 34q-3 30 -18 45q-5 5 -20 5q-13 0 -20 -5q-14 -13 -17 -43q-1 -7 -1 -35v-78zM691 250q1 -46 1 -74t1 -40q3 -41 16 -45q13 -5 23 -5q9 0 16 4q15 11 18 55q1 7 1 33v75v76 t-1 32q-1 29 -18 46q-4 4 -19 4q-16 0 -20 -4q-15 -12 -17 -44q-1 -5 -1 -33v-80zM686 504q6 2 14 2h16q93 0 137 -38q36 -31 45 -85q2 -8 2 -30v-59v-92q0 -86 -3 -102q-12 -56 -66 -87q-38 -20 -101 -20q-65 0 -105 22q-49 29 -62 92q-6 27 -6 100v71q0 145 43 187 q32 30 86 39zM635 895h102l-419 -895h-99zM208 899q89 0 133 -36q36 -30 47 -86q3 -20 3 -93v-93q0 -76 -6 -101q-13 -64 -65 -92q-39 -21 -101 -21q-67 0 -107 25q-45 29 -58 91q-6 30 -6 102v82q0 66 6 99q13 69 58 98q40 25 96 25z"/>
<glyph glyph-name="ampersand" horiz-adv-x="673" unicode="&amp;" d="M329 179l-66 150q-27 -48 -27 -87q0 -12 4 -26t10 -24q7 -12 16 -20t20 -12q24 0 43 19zM339 633q47 50 47 77q0 15 -8 31t-22 19q-3 1 -7 1q-14 0 -25 -14q-7 -8 -7 -27q0 -30 22 -87zM418 471l50 -108l14 56t8 41h164q-14 -91 -30 -140q-23 -66 -75 -141l80 -179h-213 l-18 39q-83 -47 -151 -47q-48 0 -87 19q-123 58 -123 227q0 68 37 129q31 53 115 144q-55 117 -55 197q0 65 34 109q61 81 181 81h16t16 -2q127 -19 168 -125q12 -32 12 -64q0 -86 -74 -172q-18 -21 -69 -64z"/>
<glyph glyph-name="quotesingle" horiz-adv-x="278" unicode="&apos;" d="M79 620l-24 37q7 4 16 9t20 13q31 19 27 36q-39 22 -49 30q-21 18 -25 49q-1 6 -1 13q0 41 35 70q24 21 62 21q48 0 77 -32t29 -79q0 -61 -31 -96q-41 -48 -136 -71z"/>
<glyph glyph-name="parenleft" horiz-adv-x="438" unicode="(" d="M316 891h96q-166 -260 -166 -483q0 -216 157 -493l13 -23h-98q-266 222 -266 482q0 42 6 86q30 221 258 431z"/>
<glyph glyph-name="parenright" horiz-adv-x="437" unicode=")" d="M39 892h96q258 -212 267 -483v-14q0 -114 -62 -240q-69 -142 -201 -262h-95q160 259 160 473q0 209 -153 503z"/>
<glyph glyph-name="asterisk" horiz-adv-x="535" unicode="*" d="M286 685q118 90 161 90q22 -1 37 -19q15 -19 15 -43q0 -40 -44 -54q-23 -7 -73 -7q-37 0 -88 4q40 -28 60 -44t21 -17q56 -47 54 -79q-1 -38 -31 -55q-11 -6 -23 -6q-15 0 -31 10q-35 19 -75 174l-9 -23l-27 -84q-22 -61 -55 -72q-10 -3 -19 -3q-5 -1 -11 1q-14 4 -24 12 t-16 21q-6 12 -6 26q0 8 1 12q5 29 64 73l20 14q20 14 60 40h-21h-3q-3 0 -10 -1h-27q-119 0 -142 41q-6 10 -6 21q0 15 10 35q20 29 50 29q32 0 79 -33q18 -12 76 -62q-38 119 -38 156q0 61 54 61h7q24 -2 39 -18t15 -39q0 -25 -17 -73l-27 -69v-19z"/>
<glyph glyph-name="plus" horiz-adv-x="788" unicode="+" d="M306 651h172v-242h242v-169h-242v-240h-172v240h-242v169h242v242z"/>
<glyph glyph-name="comma" horiz-adv-x="278" unicode="," d="M88 -80l-24 37q6 3 14 8t19 12q13 8 30 28v10q-39 19 -49 27q-23 20 -26 51q-1 6 -1 11q0 43 35 73q22 19 61 19q49 0 78 -30t29 -79q0 -58 -30 -94q-40 -49 -136 -73z"/>
<glyph glyph-name="hyphen" horiz-adv-x="435" unicode="-" d="M47 507h358v-173h-358v173z"/>
<glyph glyph-name="period" horiz-adv-x="272" unicode="." d="M152 195q39 0 65 -23q36 -32 36 -74q0 -65 -60 -92q-18 -7 -40 -7q-28 0 -50 12q-47 29 -48 83v5q0 19 6 35q7 18 21 32t31 21q18 8 39 8z"/>
<glyph glyph-name="slash" horiz-adv-x="524" unicode="/" d="M356 895h132l-316 -895h-133z"/>
<glyph glyph-name="zero" d="M226 703v-496q0 -58 21 -71q7 -4 14 -4q8 0 18 5q18 10 18 71v497q0 57 -35 57q-36 0 -36 -59zM206 897q21 3 46 3q106 0 164 -49q63 -54 63 -217v-365q-1 -41 -3 -73t-7 -54q-21 -86 -84 -120q-44 -24 -127 -24q-82 0 -125 25q-62 38 -81 104q-11 39 -11 125v381 q0 78 9 119q20 79 76 116q31 21 80 29z" unicode="0"/>
<glyph glyph-name="one" d="M348 895v-895h-185v727l-126 -15v150z" unicode="1"/>
<glyph glyph-name="two" d="M257 165h176v-165h-436q6 10 14 26t18 35l188 415q58 126 58 206q0 31 -11 55q-8 17 -24 20q-4 1 -7 1q-16 0 -23 -12q-12 -20 -12 -125v-19h-188v24q0 84 6 117q13 75 62 115q52 42 148 42q39 0 66 -7q100 -23 137 -101q30 -63 30 -123q0 -79 -73 -232z" unicode="2"/>
<glyph glyph-name="three" d="M363 466q74 -23 93 -58q15 -27 15 -111v-20v-13q0 -7 1 -18v-32q0 -63 -16 -101q-21 -54 -79 -86q-53 -29 -127 -29q-75 0 -127 30q-70 40 -87 107q-7 27 -7 128v42h186v-141q0 -37 38 -37q35 0 35 56v112q0 81 -20 95t-96 14v125h36q14 0 19 1q47 6 59 29q4 7 4 150 q-4 52 -41 52q-33 0 -33 -32v-115h-187q0 93 8 131q20 87 86 128q43 27 118 27q84 0 140 -32q61 -36 82 -105q12 -41 12 -118q0 -72 -18 -106q-24 -45 -94 -73z" unicode="3"/>
<glyph glyph-name="four" d="M139 305h91v258zM222 895h192v-590h61v-146h-57v-159h-184v159h-212v82v88q1 11 8 33t20 57z" unicode="4"/>
<glyph glyph-name="five" d="M53 895h399v-168h-219v-125q45 17 89 17q51 0 83 -21q66 -44 66 -177v-139q0 -93 -7 -128q-18 -93 -83 -131q-47 -26 -131 -26q-86 0 -129 28q-64 40 -82 135q-3 19 -5 53t-2 84h189v-33q0 -117 19 -129q5 -5 12 -5q8 0 19 7q15 12 15 117v131q0 100 -19 112q-8 5 -16 5 l-16 -5q-14 -9 -19 -48h-163v446z" unicode="5"/>
<glyph glyph-name="six" d="M205 311v-52q0 -109 20 -121q12 -6 21 -6q8 0 14 5q21 15 21 126v53q0 115 -26 129q-7 4 -14 4q-12 0 -24 -12t-12 -126zM469 661h-188q0 80 -23 94q-8 5 -15 5l-19 -7q-19 -13 -19 -132v-75q52 33 106 33q41 0 75 -19q83 -45 83 -197v-91q0 -95 -9 -132 q-18 -81 -85 -118q-52 -28 -139 -28q-76 0 -119 24q-60 35 -83 110q-14 48 -14 125v404q0 168 88 217q46 27 133 27q90 0 140 -29q55 -31 75 -94q13 -40 13 -117z" unicode="6"/>
<glyph glyph-name="seven" d="M13 895h451v-144l-176 -751h-193l168 731h-250v164z" unicode="7"/>
<glyph glyph-name="eight" d="M224 390q-6 -8 -8 -110q-1 -28 -1 -50q0 -54 4 -67q4 -24 25 -32q6 -2 11 -2q10 0 20 7q15 12 15 122v18q-1 15 -1 30v30q-3 50 -15 59t-24 9q-15 0 -26 -14zM220 571q12 -26 27 -30q4 -1 8 -1q13 0 25 11q8 8 8 96q0 74 -1 77q-3 10 -5 15l-1 5q-4 7 -19 13q-4 2 -8 2 q-11 0 -25 -11q-14 -9 -14 -76q0 -89 5 -101zM370 476q54 -24 68 -38q19 -19 30 -73q4 -20 6 -45t2 -56q0 -155 -52 -207q-29 -29 -89 -45q-51 -13 -103 -13h-18t-15 1q-105 18 -149 108q-19 38 -19 141q0 118 25 159q21 35 83 68q-55 33 -78 65q-22 31 -27 88q-2 10 -2 20 v20q0 132 63 185q55 46 152 46q50 0 97 -12q88 -24 116 -100q12 -35 12 -105q0 -110 -30 -153q-18 -26 -72 -54z" unicode="8"/>
<glyph glyph-name="nine" d="M211 621v-47q0 -111 22 -127q10 -7 20 -7q7 0 14 3q24 13 24 126v59q0 109 -24 124q-7 5 -15 5q-11 0 -22 -10q-19 -16 -19 -126zM34 236h186q0 -87 18 -97q5 -3 17 -2q11 0 16 3q19 12 19 127v77q-52 -31 -108 -31q-42 0 -77 20q-77 45 -77 183v100q0 96 9 134 q19 84 90 125q47 26 128 26q80 0 124 -26q62 -38 84 -122q12 -50 12 -133v-376q0 -68 -9 -104q-18 -72 -70 -107t-145 -35q-65 0 -107 16q-91 34 -103 118q-4 27 -6 53q-1 17 -1 34v17z" unicode="9"/>
<glyph glyph-name="colon" horiz-adv-x="273" unicode=":" d="M138 194q42 0 73 -31q27 -27 27 -66q0 -40 -30 -70q-29 -29 -70 -29q-45 0 -77 38q-22 26 -22 61q0 39 30 68q31 29 69 29zM111 468q12 4 28 4q36 0 62 -22q38 -30 38 -77q0 -6 -1 -11q-5 -54 -54 -81q-20 -11 -44 -11q-23 0 -43 11q-50 27 -56 80q-1 6 -1 12q0 26 14 51 q20 32 57 44z"/>
<glyph glyph-name="semicolon" horiz-adv-x="282" unicode=";" d="M89 -79q-4 4 -10 13t-14 25l8 5q8 4 24 14q23 13 31 30v10q-4 7 -23 15q-7 1 -26 13q-23 22 -26 52q-1 6 -1 11q0 43 36 73q22 19 63 19q48 -1 76 -31t28 -78q0 -59 -31 -96q-39 -48 -135 -75zM145 475q36 0 65 -24q35 -31 35 -76v-10q-4 -53 -54 -79q-24 -11 -45 -11 q-23 0 -44 12q-50 28 -54 81v10q0 37 25 65q29 32 72 32z"/>
<glyph glyph-name="less" horiz-adv-x="584" unicode="&lt;" d="M39 389l490 182v-130l-314 -112l314 -112v-131l-490 183v120z"/>
<glyph glyph-name="equal" horiz-adv-x="878" unicode="=" d="M823 269v-169h-785v169h785zM823 549v-169h-785v169h785z"/>
<glyph glyph-name="greater" horiz-adv-x="584" unicode="&gt;" d="M529 269l-490 -183v131l314 112l-314 112v130l490 -182v-120z"/>
<glyph glyph-name="question" horiz-adv-x="456" unicode="?" d="M199 203q45 0 77 -35q23 -26 23 -64q0 -18 -4 -30q-18 -59 -74 -70q-11 -3 -21 -3q-38 0 -68 31t-30 71q0 38 29 69q30 31 68 31zM224 274h-51q0 91 21 166l27 97q26 96 26 113q0 42 -27 68t-75 26q-22 0 -41 -6q-10 -2 -26 -10t-37 -19v159q123 38 178 38q58 0 110 -29 q72 -41 89 -124q4 -17 4 -39q0 -41 -23 -89q-20 -39 -66 -101l-27 -36q-56 -76 -82 -214z"/>
<glyph glyph-name="at" horiz-adv-x="770" unicode="@" d="M325 288q0 -42 21 -55q10 -9 22 -9t26 9q33 19 62 106q22 67 24 112q2 10 2 19q0 30 -21 46q-10 11 -24 11q-9 0 -20 -5q-37 -16 -67 -114q-25 -78 -25 -120zM466 254q-49 -89 -127 -89h-2q-74 2 -108 70q-18 34 -18 88q0 70 25 124q26 60 70 98t92 42q7 1 14 1 q55 0 82 -44q3 -5 7 -12t9 -16l12 55h108l-53 -208q-18 -71 -18 -98q0 -38 29 -38q7 0 17 2q55 13 88 109q21 61 21 124q0 83 -38 145q-40 65 -124 97q-57 21 -112 21q-9 0 -18 -1q-171 -11 -261 -198q-39 -83 -39 -185q0 -96 34 -168q78 -168 263 -168q120 0 251 90l23 -39 q-146 -105 -293 -105q-98 0 -183 49q-87 49 -137 148q-45 91 -45 200q0 214 154 341q104 86 252 86q89 0 159 -35q64 -34 105 -98t51 -143q2 -7 2 -17v-20q0 -67 -20 -133q-26 -79 -70 -118q-50 -45 -109 -45q-46 0 -70 30q-17 20 -23 58z"/>
<glyph glyph-name="A" horiz-adv-x="520" unicode="A" d="M235 215h64l-33 376zM168 895h175l169 -895h-189l-8 67h-94v-67h-193z"/>
<glyph glyph-name="B" horiz-adv-x="557" unicode="B" d="M253 149q40 3 42 3q22 6 34 31q5 13 5 75v22q-2 87 -9 100q-20 31 -72 36v-267zM249 557h20q11 1 21 3t18 8t15 18q7 14 7 63q0 62 -10 81q-11 21 -29 28q-5 2 -15 4t-27 4v-209zM60 895h213q85 0 114 -7q78 -19 112 -85q25 -49 25 -144q0 -89 -28 -129q-18 -26 -45 -36 q-12 -4 -53 -9q26 -5 44 -11t28 -12q32 -18 48 -62t15 -138q0 -139 -34 -188q-51 -74 -233 -74h-206v895z"/>
<glyph glyph-name="C" horiz-adv-x="549" unicode="C" d="M530 615h-195q0 128 -26 145q-9 6 -18 6t-17 -6q-24 -17 -24 -122v-383q0 -100 21 -115q10 -8 20 -8q11 0 20 10q23 23 23 136v26h193v-38q0 -98 -11 -136q-20 -65 -94 -106q-47 -26 -133 -26q-94 0 -147 31q-95 56 -95 209v406q0 174 99 230q48 27 148 27q101 0 147 -28 q91 -54 91 -189v-16t-1 -21q-1 -10 -1 -19v-13z"/>
<glyph glyph-name="D" horiz-adv-x="555" unicode="D" d="M255 142q7 -2 14 -2q14 0 26 7q34 18 34 127v347q0 76 -6 93q-14 35 -68 41v-613zM57 895h205q79 0 102 -4q67 -11 102 -47q29 -31 46 -99q7 -28 10 -56t3 -57v-374q0 -162 -64 -214q-41 -34 -94 -41q-23 -3 -105 -3h-205v895z"/>
<glyph glyph-name="E" horiz-adv-x="478" unicode="E" d="M52 895h399v-147h-194v-224h181v-145h-185v-242h193v-137h-394v895z"/>
<glyph glyph-name="F" horiz-adv-x="433" unicode="F" d="M47 895h363v-148h-158v-222h144v-149h-147v-376h-202v895z"/>
<glyph glyph-name="G" horiz-adv-x="548" unicode="G" d="M524 602h-197q0 140 -23 151q-9 6 -18 6q-11 0 -23 -8q-22 -13 -22 -112v-386q0 -105 27 -120q6 -4 14 -4q10 0 20 7q25 15 25 131v80h-41v143h238v-195q0 -95 -8 -132q-20 -92 -92 -133q-58 -32 -142 -32t-142 32q-68 39 -87 112q-9 36 -9 125v361q0 181 105 240 q58 32 145 32q83 0 133 -32q70 -46 89 -128q8 -37 8 -138z"/>
<glyph glyph-name="H" horiz-adv-x="544" unicode="H" d="M52 895h193v-361h71v361h197v-895h-197v388h-71v-388h-193v895z"/>
<glyph glyph-name="I" horiz-adv-x="280" unicode="I" d="M55 895h193v-895h-193v895z"/>
<glyph glyph-name="J" horiz-adv-x="286" unicode="J" d="M60 895h195v-751q0 -169 -78 -215q-45 -27 -152 -30v198q25 0 32 22l3 36v740z"/>
<glyph glyph-name="K" horiz-adv-x="526" unicode="K" d="M56 895h193v-411q5 -5 5 0l59 411h204l-90 -410l100 -485h-204l-70 459q0 2 -5 0v-459h-192v895z"/>
<glyph glyph-name="L" horiz-adv-x="405" unicode="L" d="M57 893h198v-754h152v-139h-350v893z"/>
<glyph glyph-name="M" horiz-adv-x="748" unicode="M" d="M97 895h189l103 -436l122 436h194l15 -895h-194v449l-91 -449h-102l-81 449l-17 -449h-187z"/>
<glyph glyph-name="N" horiz-adv-x="508" unicode="N" d="M55 895h148l99 -326v326h172v-895h-144l-103 342v-342h-172v895z"/>
<glyph glyph-name="O" horiz-adv-x="573" unicode="O" d="M249 625v-356q0 -111 27 -127q11 -7 22 -7l18 5q30 18 30 129v351q0 113 -26 130q-10 7 -21 7q-9 0 -18 -5q-32 -18 -32 -127zM229 897q21 3 51 3q137 0 196 -51q49 -43 62 -108q8 -37 8 -113v-359q0 -83 -11 -125q-21 -81 -89 -119q-50 -27 -137 -27q-102 0 -164 35 q-65 37 -84 108q-11 39 -11 122v357q0 81 12 128q19 80 82 120q33 21 85 29z"/>
<glyph glyph-name="P" horiz-adv-x="555" unicode="P" d="M254 402q44 0 52 5q27 16 27 123v96q0 96 -13 112q-9 13 -31 14h-35v-350zM57 895h211q163 0 214 -51q32 -32 43 -95q1 -15 3 -41t2 -61v-151q0 -142 -55 -196q-32 -32 -96 -40q-7 -2 -31 -2h-65h-31v-258h-195v895z"/>
<glyph glyph-name="Q" horiz-adv-x="569" unicode="Q" d="M248 626v-355q0 -110 26 -127q12 -7 24 -7q9 0 17 4q29 17 29 130v350q0 114 -25 130q-8 5 -20 5q-13 1 -19 -3q-32 -17 -32 -127zM465 38q37 -15 48 -15q12 0 45 13l-85 -144q-57 16 -81 27q-48 21 -93 64q-12 10 -15 12l-24 5q-89 17 -123 38q-93 55 -93 211v377 q0 89 11 131q20 74 87 113q52 30 146 30q96 0 149 -31q71 -41 92 -109q11 -39 11 -134v-401q0 -56 -11 -92q-16 -49 -64 -95z"/>
<glyph glyph-name="R" horiz-adv-x="568" unicode="R" d="M258 537q69 0 69 35v155q0 33 -65 33h-4v-223zM272 895q42 1 70 -1t45 -4q78 -14 110 -59q33 -47 33 -173q0 -71 -8 -98q-11 -32 -30 -47q-16 -13 -51 -23q70 -29 89 -90q10 -31 10 -126v-274h-197v249v13t1 18v28q0 43 -13 60q-18 22 -68 30v-398h-206v895h215z"/>
<glyph glyph-name="S" horiz-adv-x="508" unicode="S" d="M492 642h-195v56q-3 48 -19 58q-6 4 -14 4t-16 -4q-18 -10 -23 -46q-1 -7 -1 -15q0 -76 85 -159l35 -34q84 -83 118 -140q34 -56 34 -120q0 -35 -9 -78q-23 -111 -132 -150q-45 -16 -96 -16q-84 0 -145 48q-82 66 -82 223h198v-8q0 -5 -2 -13v-16t-1 -13q0 -46 20 -61 q8 -9 17 -9q6 0 12 3q22 10 22 56q0 55 -81 141l-51 53q-78 81 -109 136q-31 56 -31 116q0 42 15 99q28 106 136 139q28 9 70 9q117 0 176 -52q69 -60 69 -207z"/>
<glyph glyph-name="T" horiz-adv-x="468" unicode="T" d="M24 895h432v-148h-119v-747h-193v748h-120v147z"/>
<glyph glyph-name="U" horiz-adv-x="545" unicode="U" d="M50 895h194v-623q0 -116 22 -128q8 -4 16 -4t14 4q17 12 17 123v628h199v-624q0 -81 -12 -127q-23 -84 -86 -119q-50 -27 -133 -27q-87 0 -139 30q-67 40 -85 113q-3 16 -5 49t-2 84v621z"/>
<glyph glyph-name="V" horiz-adv-x="534" unicode="V" d="M23 895h202l51 -432l52 432h202l-169 -895h-181z"/>
<glyph glyph-name="W" horiz-adv-x="741" unicode="W" d="M19 895h198l41 -382l42 382h159l40 -387l41 387h198l-145 -895h-171l-45 372l-43 -372h-170z"/>
<glyph glyph-name="X" horiz-adv-x="525" unicode="X" d="M32 895h198l38 -232l43 232h201l-118 -446l117 -449h-201l-41 238l-47 -238h-195l122 451z"/>
<glyph glyph-name="Y" horiz-adv-x="498" unicode="Y" d="M11 895h192l45 -243l52 243h196l-155 -488v-407h-200v410z"/>
<glyph glyph-name="Z" horiz-adv-x="417" unicode="Z" d="M53 895h338l-111 -709h111v-186h-343l108 712h-103v183z"/>
<glyph glyph-name="bracketleft" horiz-adv-x="416" unicode="[" d="M60 895h326v-122h-150v-753h155v-124h-331v999z"/>
<glyph glyph-name="backslash" horiz-adv-x="272" unicode="\" d="M239 0h-187v568h-33v136h36q0 64 8 94q15 50 65 76q29 16 80 19q10 1 33 1t60 1v-130q-43 -3 -52 -14q-8 -10 -10 -54v-697z"/>
<glyph glyph-name="bracketright" horiz-adv-x="417" unicode="]" d="M381 -104h-331v124h155v753h-150v122h326v-999z"/>
<glyph glyph-name="asciicircum" horiz-adv-x="496" unicode="^" d="M156 950h183l120 -190h-134l-78 79l-78 -78h-130z"/>
<glyph glyph-name="underscore" horiz-adv-x="557" unicode="_" d="M578 -84h-599v70h599v-70z"/>
<glyph glyph-name="grave" horiz-adv-x="393" unicode="`" d="M39 952h224l94 -187h-131z"/>
<glyph glyph-name="a" horiz-adv-x="512" unicode="a" d="M252 601q-26 -14 -26 -107v-274q0 -105 18 -117q10 -7 30 -4q16 7 30 18v460q-13 15 -27 22t-25 2zM306 661v43h181v-704h-183v55q-68 -57 -132 -57q-31 0 -56 12q-51 25 -67 80q-8 32 -8 103v300q0 151 64 196q31 22 74 22q29 0 56 -10q42 -16 71 -40z"/>
<glyph glyph-name="b" horiz-adv-x="520" unicode="b" d="M264 99q8 -2 14 -2q10 0 16 6q16 12 16 104v286q0 94 -19 107q-10 7 -27 1q-9 -4 -30 -19v-460q14 -19 30 -23zM55 895h183v-237q55 54 116 54q29 0 56 -13q87 -39 87 -206v-297q0 -73 -3 -89q-10 -52 -54 -85q-35 -24 -79 -24q-19 0 -42 5q-44 14 -85 50v-53h-179v895z "/>
<glyph glyph-name="c" horiz-adv-x="475" unicode="c" d="M457 449h-165q0 116 -20 124q-16 7 -27 -1q-15 -12 -15 -118v-213q0 -92 10 -102q10 -12 24 -12q4 0 8 1q20 5 20 38v78h167q-3 -83 -15 -119q-21 -66 -83 -101q-50 -27 -116 -27t-112 27q-61 36 -79 94q-10 31 -10 117v220q0 80 11 122q19 74 85 112q38 22 105 22 q76 0 123 -27q64 -38 81 -108q8 -35 8 -127z"/>
<glyph glyph-name="d" horiz-adv-x="520" unicode="d" d="M283 600q-15 6 -26 0q-23 -12 -23 -111v-281q0 -93 18 -105q7 -4 14 -4q8 0 43 23v457q-7 13 -26 21zM311 895h183v-895h-187v46q-59 -48 -118 -48q-35 0 -66 15q-51 25 -68 82q-4 15 -6 41t-2 63v314q0 129 69 176q32 22 73 22q28 0 54 -10q38 -14 68 -43v237z"/>
<glyph glyph-name="e" horiz-adv-x="501" unicode="e" d="M289 569q-4 7 -16 10q-15 5 -29 -6q-17 -14 -17 -128h75v24q0 68 -5 82q-6 16 -8 18zM476 313h-247v-54q0 -115 16 -128q7 -6 14 -6q9 0 18 8q17 14 17 110h185q0 -83 -9 -117q-16 -66 -77 -101q-50 -27 -132 -27q-78 0 -122 25q-64 38 -83 108q-12 40 -12 118v188 q0 82 14 132q22 77 88 115q46 27 122 27q75 0 120 -27q65 -39 81 -106q7 -27 7 -136v-129z"/>
<glyph glyph-name="f" horiz-adv-x="272" unicode="f" d="M301 895v-130q-43 -3 -51 -11q-6 -7 -7 -50h38v-136h-42v-568h-187v568h-33v136h36q0 64 8 94q15 50 65 76q29 16 80 19q10 1 33 1t60 1z"/>
<glyph glyph-name="g" horiz-adv-x="522" unicode="g" d="M249 600q-18 -14 -18 -113v-204q0 -92 22 -104q14 -8 29 0q10 4 27 18v375q-35 33 -46 33q-6 0 -14 -5zM309 653v51h184v-545q0 -81 -10 -117q-19 -75 -81 -111t-150 -36q-110 0 -213 51l55 114q80 -37 124 -37q32 0 56 16t29 36q3 10 3 52q-55 -58 -111 -58 q-26 0 -53 12q-64 27 -83 91q-11 36 -11 116v206q0 158 75 202q27 15 63 15q37 0 67 -15q25 -13 56 -43z"/>
<glyph glyph-name="h" horiz-adv-x="518" unicode="h" d="M53 895h181v-247q11 12 28 26t39 29q24 8 46 8q46 0 81 -25q45 -32 57 -96q1 -14 3 -38t2 -62v-490h-183v485q0 94 -19 107q-4 4 -11 4q-9 0 -19 -12t-20 -21v-563h-185v895z"/>
<glyph glyph-name="i" horiz-adv-x="267" unicode="i" d="M51 704h183v-704h-183v704zM114 940q17 5 30 5q29 0 52 -17q39 -29 39 -75q0 -52 -47 -80q-20 -12 -43 -12q-19 -1 -36 7t-30 20t-21 30q-8 17 -7 36q0 65 63 86z"/>
<glyph glyph-name="j" horiz-adv-x="269" unicode="j" d="M55 704h183v-601q0 -72 -5 -95q-14 -51 -64 -83q-35 -23 -125 -32l-30 135q28 0 36 23q5 17 5 46v607zM119 939q15 5 28 5q29 0 54 -19q38 -30 38 -74v-6q-3 -49 -50 -76q-20 -11 -44 -11q-18 0 -36 8q-47 24 -53 74q-1 6 -1 12q-1 24 13 47q16 28 51 40z"/>
<glyph glyph-name="k" horiz-adv-x="496" unicode="k" d="M47 895h186v-510q2 -5 6 1l68 318h185l-83 -314l85 -390h-183l-72 358q-5 4 -6 0v-358h-186v895z"/>
<glyph glyph-name="l" horiz-adv-x="263" unicode="l" d="M53 895h183v-895h-183v895z"/>
<glyph glyph-name="m" horiz-adv-x="778" unicode="m" d="M476 632q68 80 122 80q28 0 61 -13q66 -24 82 -79q9 -27 9 -118v-502h-186v483v26q0 72 -15 79q-12 7 -28 2q-17 -10 -24 -25v-565h-187v487q0 95 -14 103q-14 9 -28 3q-13 -6 -28 -30v-563h-185v704h184v-50q63 57 111 57q22 0 52 -11q43 -17 74 -68z"/>
<glyph glyph-name="n" horiz-adv-x="521" unicode="n" d="M493 0h-183v487v23q0 69 -16 81q-9 6 -16 6q-9 0 -19 -12q-17 -20 -19 -22v-563h-185v704h184v-52q64 59 117 59q25 0 52 -12q60 -28 76 -88q9 -32 9 -113v-498z"/>
<glyph glyph-name="o" horiz-adv-x="513" unicode="o" d="M225 445v-182q0 -109 27 -124q11 -7 21 -7q8 0 14 5q26 17 26 126v184q0 113 -32 127q-8 4 -15 4q-14 0 -26 -15q-15 -17 -15 -118zM219 709q24 3 46 3q99 0 159 -51q46 -39 61 -112q8 -43 8 -116v-169q0 -89 -10 -125q-19 -72 -88 -110q-55 -31 -124 -31q-72 0 -134 35 q-66 37 -84 107q-10 33 -10 118v185q0 84 9 122q20 75 83 115q39 23 84 29z"/>
<glyph glyph-name="p" horiz-adv-x="522" unicode="p" d="M288 102q22 19 22 106v291v18q0 76 -16 85q-5 4 -13 4q-21 0 -45 -27v-457q0 -4 12 -15t24 -11q8 0 16 6zM236 44v-148h-183v808h183v-52q70 60 132 60q25 0 51 -12q53 -25 70 -79q8 -30 8 -105v-308q0 -137 -64 -185q-35 -24 -78 -24q-19 0 -41 5q-16 5 -26 8t-13 5 q-20 7 -39 27z"/>
<glyph glyph-name="q" horiz-adv-x="513" unicode="q" d="M304 122v457q-23 27 -44 27q-8 0 -13 -4q-17 -9 -17 -86v-17v-291q0 -87 22 -106q7 -6 16 -6q12 0 24 11t12 15zM226 4q-22 -5 -41 -5q-44 0 -78 24q-64 48 -64 185v308q0 75 8 105q17 54 70 79q25 12 51 12q61 0 132 -60v52h183v-808h-183v148q-25 -23 -78 -40z"/>
<glyph glyph-name="r" horiz-adv-x="332" unicode="r" d="M50 704h160v-55q15 25 45 57q10 4 23 4q15 0 35 -5v-212q-20 23 -39 23q-9 0 -14 -4q-22 -13 -27 -61q-1 -7 -1 -23t-1 -43v-385h-181v704z"/>
<glyph glyph-name="s" horiz-adv-x="469" unicode="s" d="M442 490h-161v48q-3 28 -19 38q-8 5 -16 5l-16 -4q-17 -10 -19 -37q0 -18 23 -43q4 -5 16 -15t33 -28l19 -16q46 -38 76 -67t44 -48q34 -46 34 -106q0 -11 -1 -25t-3 -28q-15 -108 -108 -149q-45 -17 -103 -17q-85 0 -134 36t-62 90q-7 27 -7 105h168q0 -81 19 -94 q7 -5 15 -5t17 5q19 12 19 42q0 49 -75 108l-24 19q-42 34 -70 60t-42 46q-34 46 -34 106q0 19 3 43q14 98 110 139q33 14 90 14q96 0 146 -35q43 -30 55 -87q1 -4 3 -29t4 -71z"/>
<glyph glyph-name="t" horiz-adv-x="266" unicode="t" d="M53 835h183v-131h44v-136h-44v-568h-180v568h-47v136h44v131z"/>
<glyph glyph-name="u" horiz-adv-x="529" unicode="u" d="M53 704h185v-440q0 -116 26 -131q7 -4 14 -4q11 0 22 8q21 13 21 126v441h181v-422q0 -86 -9 -129q-20 -92 -84 -129q-47 -26 -133 -26q-81 0 -129 27q-66 38 -86 116q-4 17 -6 49t-2 82v432z"/>
<glyph glyph-name="v" horiz-adv-x="468" unicode="v" d="M9 704h189l42 -384l45 384h185l-160 -704h-140z"/>
<glyph glyph-name="w" horiz-adv-x="709" unicode="w" d="M19 704h186l47 -388l50 388h126l59 -403l38 403h181l-152 -704h-131l-56 349l-48 -349h-137z"/>
<glyph glyph-name="x" horiz-adv-x="494" unicode="x" d="M10 704h184l58 -202l48 202h188l-144 -343l150 -361h-183l-58 196l-51 -196h-187l143 360z"/>
<glyph glyph-name="y" horiz-adv-x="457" unicode="y" d="M5 704h193l37 -417l41 417h190l-165 -628q-17 -61 -31 -90q-29 -59 -76 -79q-27 -11 -59 -11q-49 0 -101 21v162q47 -35 75 -35q17 0 31 11q19 15 19 49q0 18 -17 83z"/>
<glyph glyph-name="z" horiz-adv-x="371" unicode="z" d="M46 704h303l-101 -587h96v-117h-306l98 579h-90v125z"/>
<glyph glyph-name="braceleft" horiz-adv-x="524" unicode="{" d="M506 910q1 -7 1 -14v-13q0 -21 -3 -24q-85 -12 -129 -56q-29 -29 -33 -60q-1 -4 -1 -70v-58q0 -64 -7 -89q-13 -52 -58 -84q-41 -29 -165 -53q128 -19 172 -56q56 -47 56 -170v-52q0 -67 3 -80q10 -42 58 -74q48 -33 107 -37v-16v-19q0 -9 -1 -15q-57 0 -116 14 q-80 19 -117 60q-34 34 -42 77q-5 25 -5 87v60q0 66 -3 80q-11 49 -57 77q-28 18 -119 35v58q106 18 141 53q38 40 38 143v53q0 73 10 106q18 59 77 94q68 39 193 43z"/>
<glyph glyph-name="bar" horiz-adv-x="280" unicode="|" d="M180 -87h-80v931h80v-931z"/>
<glyph glyph-name="braceright" horiz-adv-x="524" unicode="}" d="M24 910q46 0 110 -14q85 -19 120 -56q36 -36 43 -80q5 -25 5 -93v-65q0 -102 58 -145q39 -28 124 -41v-60q-95 -10 -134 -43q-45 -38 -45 -133v-69q0 -83 -13 -116q-21 -54 -87 -89q-54 -28 -181 -37v51q98 11 133 56q31 38 31 133v52q0 127 61 173q47 35 167 54 q-131 23 -173 60q-55 46 -55 172v56q0 67 -6 87q-14 44 -71 73q-34 17 -87 23v51z"/>
<glyph glyph-name="asciitilde" horiz-adv-x="521" unicode="~" d="M422 966h65q-9 -84 -18 -112q-22 -64 -79 -89q-30 -13 -53 -13q-24 0 -53 16q-18 10 -77 49q-27 18 -45 18q-13 0 -23 -7q-28 -17 -41 -69h-59q4 148 93 195q22 11 51 11q52 0 93 -27q24 -16 46 -30t38 -15q11 0 20 4q33 15 42 69z"/>
<glyph glyph-name="exclamdown" horiz-adv-x="276" unicode="¡" d="M123 437h49l41 -197q30 -146 30 -218q0 -68 -22 -96q-27 -34 -72 -34t-71 30t-26 99q0 51 17 139zM119 703q12 4 29 4q36 0 62 -21q39 -31 39 -78q0 -5 -1 -11q-5 -55 -52 -80q-23 -12 -47 -12q-23 0 -45 11q-48 26 -54 79q-1 7 -1 13q1 28 15 52q18 30 55 43z"/>
<glyph glyph-name="cent" horiz-adv-x="516" unicode="¢" d="M255 577q-34 -9 -34 -145v-145l75 289q-10 3 -22 3q-9 0 -19 -2zM351 774h42l-17 -81q74 -48 95 -108q13 -38 13 -138h-149v99l-77 -288q-21 -78 -21 -102q0 -13 4 -17q12 -15 29 -15q4 0 8 1q24 0 40 25q11 17 11 103h156q1 -7 1 -14v-14q0 -137 -93 -201 q-50 -33 -126 -33q-43 0 -73 10l-29 -97h-43l28 115q-103 73 -103 192v238q0 89 13 128q21 71 90 110q46 27 113 27q31 0 69 -6z"/>
<glyph glyph-name="sterling" horiz-adv-x="558" unicode="£" d="M524 635h-183q0 112 -22 125q-12 7 -28 -1q-20 -14 -20 -131v-77h125v-160h-128v-30q0 -134 -30 -195q11 4 25 6t31 1h7q39 0 50 10q12 12 12 88h169q0 -101 -3 -123q-13 -77 -66 -124q-40 -34 -101 -34q-10 0 -35 2t-65 8h-43q-47 6 -75 6q-46 0 -92 -13v152 q27 34 33 88q3 19 3 88v70h-36v162h33v72q0 95 8 132q18 81 86 120q43 25 126 25t130 -28q66 -38 82 -111q7 -29 7 -128z"/>
<glyph glyph-name="currency" horiz-adv-x="600" unicode="¤" d="M300 401q-34 -1 -57 -23t-23 -67t23 -67t57 -23q34 1 57 23t23 67t-23 67t-57 23zM512 36l-96 87q-55 -32 -116 -32q-63 0 -116 32l-96 -87l-77 91l92 74q-23 58 -23 110q0 47 23 110l-92 74l77 91l96 -87q55 32 116 32q63 0 116 -32l96 87l77 -91l-92 -74 q23 -58 23 -110q0 -47 -23 -110l92 -74z"/>
<glyph glyph-name="yen" horiz-adv-x="520" unicode="¥" d="M351 254v-254h-173v254h-143v104h145l-25 112h-120v104h90l-88 310h157l63 -325h10l59 325h166l-88 -310h90v-104h-121l-23 -112h144v-104h-143z"/>
<glyph glyph-name="brokenbar" horiz-adv-x="222" unicode="¦" d="M56 0v265h110v-265h-110zM56 442v265h110v-265h-110z"/>
<glyph glyph-name="section" horiz-adv-x="600" unicode="§" d="M183 534q0 -27 82 -106q80 -77 99 -77q49 0 49 38q0 26 -81 106q-79 76 -99 76q-50 0 -50 -37zM494 809l-94 -80q-18 19 -28 29t-12 13q-23 19 -55 19q-46 0 -46 -47q0 -22 75 -85q58 -47 92 -77t48 -44q75 -77 75 -132q0 -44 -35 -85q-33 -39 -85 -50q53 -61 53 -124 t-49 -103q-52 -43 -135 -43q-115 0 -209 99l106 80q46 -73 97 -73q24 0 39 16t15 39q0 28 -78 94q-60 53 -96 85t-47 42q-78 79 -78 139q0 53 39 88q36 31 95 39q-58 58 -58 102q1 34 13 60t35 46t55 30t74 10q104 0 194 -87z"/>
<glyph glyph-name="dieresis" horiz-adv-x="501" unicode="¨" d="M377 967q28 0 52 -18q36 -28 36 -73q0 -46 -44 -72q-20 -11 -43 -11q-34 -1 -58 21t-28 55q-1 6 -1 12q0 31 22 56q25 30 64 30zM126 966q31 0 56 -22q31 -28 31 -64q0 -6 -1 -12q-7 -46 -49 -67q-17 -9 -39 -9q-24 0 -40 10q-42 25 -45 72v5q0 16 5 31q6 18 18 30t28 19 t36 7z"/>
<glyph glyph-name="copyright" horiz-adv-x="800" unicode="©" d="M417 337q-87 0 -141 58t-54 145q0 91 52 147q52 57 141 57q65 0 109 -36t56 -103h-78q-14 59 -87 59q-47 0 -71 -32t-24 -90q0 -54 27 -90t70 -35q78 0 86 62h81q-12 -69 -58 -105t-109 -37zM402 814q-110 0 -186 -78q-75 -77 -75 -199t75 -200q77 -77 186 -77 q108 0 185 78q76 77 76 199t-76 199q-77 78 -185 78zM402 180q-152 0 -258 93q-113 101 -113 264t113 264q106 93 258 93t257 -93q114 -101 114 -264q0 -164 -114 -264q-105 -93 -257 -93z"/>
<glyph glyph-name="guillemotleft" horiz-adv-x="553" unicode="«" d="M365 696h151l-88 -353l74 -343h-147l-81 352zM130 696h151l-88 -353l74 -343h-148l-80 352z"/>
<glyph glyph-name="registered" horiz-adv-x="800" unicode="®" d="M398 671h-60v-99h80q58 0 58 54q0 45 -78 45zM446 518l100 -170h-78l-89 164h-41v-164h-80v383h142q80 0 118 -24q42 -27 42 -91q0 -94 -114 -98zM401 816q-110 0 -186 -78q-75 -77 -75 -199t75 -200q77 -77 186 -77q108 0 185 78q76 77 76 199t-76 199q-77 78 -185 78z M401 182q-152 0 -258 93q-113 101 -113 264t113 264q106 93 258 93t257 -93q114 -101 114 -264q0 -164 -114 -264q-105 -93 -257 -93z"/>
<glyph glyph-name="acute" horiz-adv-x="386" unicode="´" d="M131 948h220l-186 -184h-126z"/>
<glyph glyph-name="paragraph" horiz-adv-x="575" unicode="¶" d="M383 0v802h-46v-802h-126v543h-86l-106 98v143l105 111h384v-897z"/>
<glyph glyph-name="cedilla" horiz-adv-x="288" unicode="¸" d="M116 -7h137l-23 -97h-191z"/>
<glyph glyph-name="guillemotright" horiz-adv-x="553" unicode="»" d="M281 352l-80 -352h-148l74 343l-88 353h152zM516 352l-80 -352h-148l74 343l-88 353h152z"/>
<glyph glyph-name="onequarter" horiz-adv-x="937" unicode="¼" d="M474 895h181v-247q11 12 28 26t39 29q24 8 46 8q46 0 81 -25q45 -32 57 -96q2 -14 4 -38t1 -62v-490h-183v485q0 94 -19 107q-4 4 -11 4q-10 0 -20 -12t-19 -21v-563h-185v895zM457 449h-165q0 116 -20 124q-16 7 -27 -1q-15 -12 -15 -118v-213q0 -92 10 -102 q10 -12 24 -12q4 0 8 1q20 5 20 38v78h167q-3 -83 -15 -119q-21 -66 -83 -101q-50 -27 -116 -27t-112 27q-61 36 -79 94q-10 31 -10 117v220q0 80 11 122q19 74 85 112q38 22 105 22q76 0 123 -27q64 -38 81 -108q8 -35 8 -127z"/>
<glyph glyph-name="onehalf" horiz-adv-x="921" unicode="½" d="M474 895h186v-510q2 -5 6 1l68 318h185l-83 -314l85 -390h-183l-72 358q-5 4 -6 0v-358h-186v895zM457 449h-165q0 116 -20 124q-16 7 -27 -1q-15 -12 -15 -118v-213q0 -92 10 -102q10 -12 24 -12q4 0 8 1q20 5 20 38v78h167q-3 -83 -15 -119q-21 -66 -83 -101 q-50 -27 -116 -27t-112 27q-61 36 -79 94q-10 31 -10 117v220q0 80 11 122q19 74 85 112q38 22 105 22q76 0 123 -27q64 -38 81 -108q8 -35 8 -127z"/>
<glyph glyph-name="threequarters" horiz-adv-x="1164" unicode="¾" d="M700 895h181v-247q11 12 28 26t39 29q24 8 46 8q46 0 81 -25q45 -32 57 -96q2 -14 4 -38t1 -62v-490h-183v485q0 94 -19 107q-4 4 -11 4q-10 0 -20 -12t-19 -21v-563h-185v895zM683 449h-165q0 116 -20 124q-16 7 -27 -1q-15 -12 -15 -118v-213q0 -92 10 -102 q10 -12 24 -12q4 0 8 1q20 5 20 38v78h167q-3 -83 -15 -119q-21 -66 -83 -101q-50 -27 -116 -27t-112 27q-61 36 -79 94q-10 31 -10 117v220q0 80 11 122q19 74 85 112q38 22 105 22q76 0 123 -27q64 -38 81 -108q8 -35 8 -127zM239 0h-187v568h-33v136h36q0 64 8 94 q15 50 65 76q29 16 80 19q10 1 33 1t60 1v-130q-43 -3 -52 -14q-8 -10 -10 -54v-697z"/>
<glyph glyph-name="questiondown" horiz-adv-x="457" unicode="¿" d="M249 -115q-145 4 -193 115q-19 41 -19 79q0 46 30 94q24 40 83 104l27 29q39 51 63 125h64q-3 -42 -12 -82t-23 -82l-11 -31q-5 -15 -11 -30t-12 -29q-12 -35 -12 -57q0 -33 26 -57t64 -24q44 0 109 36v-158q-56 -17 -99 -25q-38 -7 -67 -7h-7zM235 703q12 4 28 4 q35 0 64 -23q36 -31 36 -79v-10q-5 -54 -54 -79q-24 -11 -46 -11q-24 0 -44 11q-52 29 -56 81q-1 7 -1 14q0 68 73 92z"/>
<glyph glyph-name="Agrave" horiz-adv-x="522" unicode="À" d="M32 1196h223l94 -187h-130zM239 215h63l-33 376zM172 895h175l169 -895h-189l-8 67h-94v-67h-193z"/>
<glyph glyph-name="Aacute" horiz-adv-x="522" unicode="Á" d="M240 1196h220l-186 -185h-125zM239 215h63l-33 376zM172 895h175l169 -895h-189l-8 67h-94v-67h-193z"/>
<glyph glyph-name="Acircumflex" horiz-adv-x="522" unicode="Â" d="M164 1213h183l119 -190h-133l-79 79l-77 -78h-130zM239 215h63l-33 376zM172 895h175l169 -895h-189l-8 67h-94v-67h-193z"/>
<glyph glyph-name="Atilde" horiz-adv-x="522" unicode="Ã" d="M414 1202h65q-8 -80 -18 -111q-23 -65 -79 -90q-30 -13 -52 -13q-23 0 -54 16q-8 5 -28 17t-49 32q-28 19 -45 19q-13 0 -23 -7q-28 -17 -41 -70h-58q2 150 93 196q19 10 49 10q53 0 94 -27q24 -16 46 -30t38 -15q11 0 20 4q33 15 42 69zM239 215h63l-33 376zM172 895 h175l169 -895h-189l-8 67h-94v-67h-193z"/>
<glyph glyph-name="Adieresis" horiz-adv-x="522" unicode="Ä" d="M394 1169q28 0 52 -18q37 -29 36 -75q-2 -45 -45 -70q-20 -11 -43 -11q-33 -1 -57 21t-28 55q-1 6 -1 12q0 31 22 56q25 30 64 30zM143 1168q31 0 56 -22q31 -28 31 -64q0 -6 -1 -12q-7 -46 -50 -67q-18 -9 -39 -9q-23 0 -39 10q-42 25 -45 72v5q0 16 5 31q6 18 18 30 q13 12 29 19t35 7zM239 215h63l-33 376zM172 895h175l169 -895h-189l-8 67h-94v-67h-193z"/>
<glyph glyph-name="Aring" horiz-adv-x="522" unicode="Å" d="M184 1121q8 -36 40 -51q11 -5 22 -5q16 0 31 11q28 21 28 54q1 24 -19 44q-18 19 -42 19q-14 0 -29 -9q-32 -19 -32 -51q0 -6 1 -12zM241 1253q47 0 83 -33q40 -37 40 -91q0 -80 -69 -111q-24 -11 -52 -11q-35 0 -60 16q-59 36 -62 100v7q0 62 52 100q32 23 68 23z M233 215h63l-33 376zM165 895h176l169 -895h-190l-7 67h-94v-67h-194z"/>
<glyph glyph-name="AE" horiz-adv-x="701" unicode="Æ" d="M243 249h62v480zM183 895h488v-149h-172v-229h160v-143h-161v-241h170v-133h-366v116h-66v-116h-203z"/>
<glyph glyph-name="Ccedilla" horiz-adv-x="549" unicode="Ç" d="M230 -7h137l-23 -97h-190zM530 615h-195q0 128 -26 145q-9 6 -18 6t-17 -6q-24 -17 -24 -122v-383q0 -100 21 -115q10 -8 20 -8q11 0 20 10q23 23 23 136v26h193v-38q0 -98 -11 -136q-20 -65 -94 -106q-47 -26 -133 -26q-94 0 -147 31q-95 56 -95 209v406q0 174 99 230 q48 27 148 27q101 0 147 -28q91 -54 91 -189v-16t-1 -21q-1 -10 -1 -19v-13z"/>
<glyph glyph-name="Egrave" horiz-adv-x="474" unicode="È" d="M-7 1196h223l94 -187h-131zM52 895h399v-147h-194v-224h181v-145h-185v-242h193v-137h-394v895z"/>
<glyph glyph-name="Eacute" horiz-adv-x="474" unicode="É" d="M260 1196h220l-185 -185h-126zM52 895h399v-147h-194v-224h181v-145h-185v-242h193v-137h-394v895z"/>
<glyph glyph-name="Ecircumflex" horiz-adv-x="474" unicode="Ê" d="M164 1206h183l119 -191h-133l-79 79l-77 -77h-130zM52 895h399v-147h-194v-224h181v-145h-185v-242h193v-137h-394v895z"/>
<glyph glyph-name="Edieresis" horiz-adv-x="474" unicode="Ë" d="M374 1169q28 0 52 -18q37 -29 36 -75q-2 -45 -45 -70q-20 -11 -43 -11q-33 -1 -57 21t-28 55q-1 6 -1 12q0 31 22 56q25 30 64 30zM123 1168q31 0 56 -22q31 -28 31 -64q0 -6 -1 -12q-7 -46 -50 -67q-18 -9 -39 -9q-23 0 -39 10q-42 25 -45 72v5q0 16 5 31q6 18 18 30 q13 12 29 19t35 7zM52 895h399v-147h-194v-224h181v-145h-185v-242h193v-137h-394v895z"/>
<glyph glyph-name="Igrave" horiz-adv-x="280" unicode="Ì" d="M-17 1196h223l94 -187h-131zM55 895h193v-895h-193v895z"/>
<glyph glyph-name="Iacute" horiz-adv-x="280" unicode="Í" d="M139 1199h219l-185 -184h-126zM55 895h193v-895h-193v895z"/>
<glyph glyph-name="Icircumflex" horiz-adv-x="280" unicode="Î" d="M57 1213h183l120 -190h-134l-79 79l-77 -78h-129zM55 895h193v-895h-193v895z"/>
<glyph glyph-name="Idieresis" horiz-adv-x="280" unicode="Ï" d="M271 1188q28 0 52 -18q35 -27 35 -68v-7q-3 -44 -44 -70q-20 -11 -43 -11q-19 0 -37 8q-42 19 -48 68q-1 6 -1 13q0 12 4 24q5 17 17 31t28 22t37 8zM19 1187q31 0 56 -22q31 -27 31 -63q0 -6 -1 -13q-6 -45 -49 -67q-18 -9 -39 -9q-23 0 -39 10q-41 24 -44 72v6 q0 35 23 59q25 26 62 27zM55 895h193v-895h-193v895z"/>
<glyph glyph-name="Ntilde" horiz-adv-x="507" unicode="Ñ" d="M418 1233h65q-9 -84 -18 -112q-22 -64 -79 -89q-30 -13 -52 -13q-23 0 -54 16q-8 5 -28 17t-49 32q-27 18 -44 18q-13 0 -24 -7q-28 -17 -41 -70h-58q2 149 92 196q22 11 52 11q51 0 92 -27q24 -17 46 -31t38 -14q11 0 20 4q33 15 42 69zM55 895h148l99 -326v326h172 v-895h-144l-103 342v-342h-172v895z"/>
<glyph glyph-name="Ograve" horiz-adv-x="560" unicode="Ò" d="M127 1196h224l94 -187h-131zM243 625v-356q0 -110 26 -127q12 -8 23 -8q9 0 18 6q29 17 29 129v351q0 114 -25 130q-10 7 -21 7q-9 0 -19 -5q-31 -16 -31 -127zM222 897q22 3 52 3q137 0 196 -51q49 -43 62 -108q8 -37 8 -113v-359q0 -83 -11 -125q-21 -81 -89 -119 q-50 -27 -137 -27q-102 0 -164 35q-66 38 -85 108q-11 39 -11 122v357q0 81 12 128q19 80 82 120q33 21 85 29z"/>
<glyph glyph-name="Oacute" horiz-adv-x="560" unicode="Ó" d="M253 1196h220l-186 -185h-126zM243 625v-356q0 -110 26 -127q12 -8 23 -8q9 0 18 6q29 17 29 129v351q0 114 -25 130q-10 7 -21 7q-9 0 -19 -5q-31 -16 -31 -127zM222 897q22 3 52 3q137 0 196 -51q49 -43 62 -108q8 -37 8 -113v-359q0 -83 -11 -125q-21 -81 -89 -119 q-50 -27 -137 -27q-102 0 -164 35q-66 38 -85 108q-11 39 -11 122v357q0 81 12 128q19 80 82 120q33 21 85 29z"/>
<glyph glyph-name="Ocircumflex" horiz-adv-x="560" unicode="Ô" d="M191 1210h183l119 -191h-133l-79 79l-78 -78h-129zM243 625v-356q0 -110 26 -127q12 -8 23 -8q9 0 18 6q29 17 29 129v351q0 114 -25 130q-10 7 -21 7q-9 0 -19 -5q-31 -16 -31 -127zM222 897q22 3 52 3q137 0 196 -51q49 -43 62 -108q8 -37 8 -113v-359q0 -83 -11 -125 q-21 -81 -89 -119q-50 -27 -137 -27q-102 0 -164 35q-66 38 -85 108q-11 39 -11 122v357q0 81 12 128q19 80 82 120q33 21 85 29z"/>
<glyph glyph-name="Otilde" horiz-adv-x="560" unicode="Õ" d="M414 1202h65q-8 -80 -18 -111q-23 -65 -79 -90q-30 -13 -52 -13q-23 0 -54 16q-8 5 -28 17t-49 32q-28 19 -45 19q-13 0 -23 -7q-28 -17 -41 -70h-58q2 150 93 196q19 10 49 10q53 0 94 -27q24 -16 46 -30t38 -15q11 0 20 4q33 15 42 69zM243 625v-356q0 -110 26 -127 q12 -8 23 -8q9 0 18 6q29 17 29 129v351q0 114 -25 130q-10 7 -21 7q-9 0 -19 -5q-31 -16 -31 -127zM222 897q22 3 52 3q137 0 196 -51q49 -43 62 -108q8 -37 8 -113v-359q0 -83 -11 -125q-21 -81 -89 -119q-50 -27 -137 -27q-102 0 -164 35q-66 38 -85 108q-11 39 -11 122 v357q0 81 12 128q19 80 82 120q33 21 85 29z"/>
<glyph glyph-name="Odieresis" horiz-adv-x="563" unicode="Ö" d="M414 1169q28 0 52 -18q37 -29 36 -75q-2 -45 -45 -70q-20 -11 -43 -11q-33 -1 -57 21t-28 55q-1 6 -1 12q0 31 22 56q25 30 64 30zM163 1168q31 0 56 -22q31 -28 31 -64q0 -6 -1 -12q-7 -46 -50 -67q-18 -9 -39 -9q-23 0 -39 10q-42 25 -45 72v5q0 16 5 31q6 18 18 30 q13 12 29 19t35 7zM243 625v-356q0 -110 26 -127q12 -8 23 -8q9 0 18 6q29 17 29 129v351q0 114 -25 130q-10 7 -21 7q-9 0 -19 -5q-31 -16 -31 -127zM222 897q22 3 52 3q137 0 196 -51q49 -43 62 -108q8 -37 8 -113v-359q0 -83 -11 -125q-21 -81 -89 -119q-50 -27 -137 -27 q-102 0 -164 35q-66 38 -85 108q-11 39 -11 122v357q0 81 12 128q19 80 82 120q33 21 85 29z"/>
<glyph glyph-name="multiply" horiz-adv-x="788" unicode="×" d="M101 495l122 121l171 -171l171 171l119 -119l-171 -171l170 -170l-122 -121l-169 169l-171 -171l-120 120l171 171z"/>
<glyph glyph-name="Oslash" horiz-adv-x="573" unicode="Ø" d="M431 907h106l-33 -88q30 -41 37 -95q1 -15 3 -39t2 -57v-359q0 -83 -11 -125q-21 -81 -89 -119q-50 -27 -137 -27q-80 0 -140 23l-11 -25h-109l38 89q-25 36 -33 89q-2 14 -3 36t-1 53v357q0 81 12 128q19 80 82 120q33 21 85 29q21 3 51 3q81 0 140 -21zM346 443 l-96 -229q5 -59 25 -72q11 -7 22 -7q9 0 19 5q30 18 30 129v174zM249 472l94 224q-5 43 -24 55q-10 6 -20 6l-18 -5q-32 -18 -32 -127v-153z"/>
<glyph glyph-name="Ugrave" horiz-adv-x="543" unicode="Ù" d="M127 1196h224l94 -187h-131zM50 895h194v-623q0 -116 22 -128q8 -4 16 -4t14 4q17 12 17 123v628h199v-624q0 -81 -12 -127q-23 -84 -86 -119q-50 -27 -133 -27q-87 0 -139 30q-67 40 -85 113q-3 16 -5 49t-2 84v621z"/>
<glyph glyph-name="Uacute" horiz-adv-x="543" unicode="Ú" d="M253 1196h220l-186 -185h-126zM50 895h194v-623q0 -116 22 -128q8 -4 16 -4t14 4q17 12 17 123v628h199v-624q0 -81 -12 -127q-23 -84 -86 -119q-50 -27 -133 -27q-87 0 -139 30q-67 40 -85 113q-3 16 -5 49t-2 84v621z"/>
<glyph glyph-name="Ucircumflex" horiz-adv-x="543" unicode="Û" d="M191 1210h183l119 -191h-133l-79 79l-78 -78h-129zM50 895h194v-623q0 -116 22 -128q8 -4 16 -4t14 4q17 12 17 123v628h199v-624q0 -81 -12 -127q-23 -84 -86 -119q-50 -27 -133 -27q-87 0 -139 30q-67 40 -85 113q-3 16 -5 49t-2 84v621z"/>
<glyph glyph-name="Udieresis" horiz-adv-x="543" unicode="Ü" d="M414 1169q28 0 52 -18q37 -29 36 -75q-2 -45 -45 -70q-20 -11 -43 -11q-33 -1 -57 21t-28 55q-1 6 -1 12q0 31 22 56q25 30 64 30zM163 1168q31 0 56 -22q31 -28 31 -64q0 -6 -1 -12q-7 -46 -50 -67q-18 -9 -39 -9q-23 0 -39 10q-42 25 -45 72v5q0 16 5 31q6 18 18 30 q13 12 29 19t35 7zM50 895h194v-623q0 -116 22 -128q8 -4 16 -4t14 4q17 12 17 123v628h199v-624q0 -81 -12 -127q-23 -84 -86 -119q-50 -27 -133 -27q-87 0 -139 30q-67 40 -85 113q-3 16 -5 49t-2 84v621z"/>
<glyph glyph-name="Yacute" horiz-adv-x="498" unicode="Ý" d="M253 1196h220l-186 -185h-126zM11 895h192l45 -243l52 243h196l-155 -488v-407h-200v410z"/>
<glyph glyph-name="germandbls" horiz-adv-x="521" unicode="ß" d="M412 502q61 -43 75 -88q6 -21 6 -104v-52q0 -44 -2 -74t-6 -50q-18 -91 -80 -123q-37 -18 -99 -18q-19 0 -40 2v135h6q16 0 25 9q7 6 9 33v210v7q0 25 -6 33q-11 12 -24 12q-3 0 -7 -1v135q25 0 37 19q7 8 7 38v73q0 46 -22 59q-9 4 -17 4q-10 0 -17 -6q-19 -13 -19 -112 v-643h-187v621q0 85 10 122q20 80 84 119q44 28 120 28q77 0 130 -27q99 -50 101 -157v-19q0 -51 -9 -84q-18 -63 -75 -101z"/>
<glyph glyph-name="agrave" horiz-adv-x="512" unicode="à" d="M78 986h223l94 -187h-131zM252 601q-26 -14 -26 -107v-274q0 -105 18 -117q10 -7 30 -4q16 7 30 18v460q-13 15 -27 22t-25 2zM306 661v43h181v-704h-183v55q-68 -57 -132 -57q-31 0 -56 12q-51 25 -67 80q-8 32 -8 103v300q0 151 64 196q31 22 74 22q29 0 56 -10 q42 -16 71 -40z"/>
<glyph glyph-name="aacute" horiz-adv-x="512" unicode="á" d="M266 1005h219l-185 -184h-126zM252 601q-26 -14 -26 -107v-274q0 -105 18 -117q10 -7 30 -4q16 7 30 18v460q-13 15 -27 22t-25 2zM306 661v43h181v-704h-183v55q-68 -57 -132 -57q-31 0 -56 12q-51 25 -67 80q-8 32 -8 103v300q0 151 64 196q31 22 74 22q29 0 56 -10 q42 -16 71 -40z"/>
<glyph glyph-name="acircumflex" horiz-adv-x="512" unicode="â" d="M175 1004h183l120 -191h-134l-78 79l-78 -78h-130zM252 601q-26 -14 -26 -107v-274q0 -105 18 -117q10 -7 30 -4q16 7 30 18v460q-13 15 -27 22t-25 2zM306 661v43h181v-704h-183v55q-68 -57 -132 -57q-31 0 -56 12q-51 25 -67 80q-8 32 -8 103v300q0 151 64 196 q31 22 74 22q29 0 56 -10q42 -16 71 -40z"/>
<glyph glyph-name="atilde" horiz-adv-x="512" unicode="ã" d="M407 1034h64q-4 -40 -8 -68t-9 -43q-22 -64 -79 -89q-30 -13 -52 -13q-23 0 -54 16q-7 5 -27 17t-50 32q-27 18 -45 18q-13 0 -24 -7q-28 -16 -40 -70h-59q2 150 93 196q19 10 49 10q53 0 94 -27q24 -16 46 -30t38 -15q9 0 21 5q31 13 42 68zM252 601q-26 -14 -26 -107 v-274q0 -105 18 -117q10 -7 30 -4q16 7 30 18v460q-13 15 -27 22t-25 2zM306 661v43h181v-704h-183v55q-68 -57 -132 -57q-31 0 -56 12q-51 25 -67 80q-8 32 -8 103v300q0 151 64 196q31 22 74 22q29 0 56 -10q42 -16 71 -40z"/>
<glyph glyph-name="adieresis" horiz-adv-x="512" unicode="ä" d="M399 985q29 0 52 -18q36 -28 36 -69v-6q-3 -44 -45 -70q-20 -12 -44 -12q-18 0 -36 8q-42 19 -48 69q-1 6 -1 13q0 12 4 24q5 18 17 32t28 21q16 8 37 8zM147 984q33 0 56 -22q32 -28 32 -64q0 -6 -1 -12q-8 -48 -50 -68q-18 -8 -38 -8q-25 0 -41 10q-41 24 -44 72v5 q0 16 5 31q6 18 18 30t28 19t35 7zM252 601q-26 -14 -26 -107v-274q0 -105 18 -117q10 -7 30 -4q16 7 30 18v460q-13 15 -27 22t-25 2zM306 661v43h181v-704h-183v55q-68 -57 -132 -57q-31 0 -56 12q-51 25 -67 80q-8 32 -8 103v300q0 151 64 196q31 22 74 22q29 0 56 -10 q42 -16 71 -40z"/>
<glyph glyph-name="aring" horiz-adv-x="512" unicode="å" d="M225 930q4 -22 21 -39t39 -17q18 0 33 12q28 21 28 52q0 38 -36 57q-13 7 -26 7q-14 0 -29 -8q-31 -21 -31 -52q0 -6 1 -12zM282 1061q46 0 83 -32q40 -36 40 -91q0 -78 -70 -111q-24 -11 -51 -11q-35 0 -60 16q-60 36 -63 101v7q0 61 52 99q31 22 69 22zM252 601 q-26 -14 -26 -107v-274q0 -105 18 -117q10 -7 30 -4q16 7 30 18v460q-13 15 -27 22t-25 2zM306 661v43h181v-704h-183v55q-68 -57 -132 -57q-31 0 -56 12q-51 25 -67 80q-8 32 -8 103v300q0 151 64 196q31 22 74 22q29 0 56 -10q42 -16 71 -40z"/>
<glyph glyph-name="ae" horiz-adv-x="753" unicode="æ" d="M529 578q-10 10 -27 1q-26 -15 -26 -134h70q0 116 -17 133zM253 600q-28 -13 -28 -111v-269q0 -92 23 -104q12 -5 17 -5q7 0 39 21v450q0 6 -12 14t-24 7q-8 0 -15 -3zM304 666v38h169v-34q56 41 98 41q34 0 74 -22q59 -32 75 -103q9 -36 9 -129v-142h-253v-52 q0 -114 20 -128q6 -5 13 -5q8 0 17 6q22 15 22 105h183v-19q0 -131 -80 -186q-58 -38 -151 -38q-41 0 -71 11q-46 19 -90 77q-80 -87 -164 -87q-29 0 -54 9q-58 23 -74 81q-8 32 -8 107v297q0 147 70 196q31 22 74 22q25 0 52 -8q17 -5 35 -15t34 -22z"/>
<glyph glyph-name="ccedilla" horiz-adv-x="475" unicode="ç" d="M166 -7h138l-23 -97h-191zM457 449h-165q0 116 -20 124q-16 7 -27 -1q-15 -12 -15 -118v-213q0 -92 10 -102q10 -12 24 -12q4 0 8 1q20 5 20 38v78h167q-3 -83 -15 -119q-21 -66 -83 -101q-50 -27 -116 -27t-112 27q-61 36 -79 94q-10 31 -10 117v220q0 80 11 122 q19 74 85 112q38 22 105 22q76 0 123 -27q64 -38 81 -108q8 -35 8 -127z"/>
<glyph glyph-name="egrave" horiz-adv-x="504" unicode="è" d="M17 973h223l94 -186h-131zM289 569q-4 7 -16 10q-15 5 -29 -6q-17 -14 -17 -128h75v24q0 68 -5 82q-6 16 -8 18zM476 313h-247v-54q0 -115 16 -128q7 -6 14 -6q9 0 18 8q17 14 17 110h185q0 -83 -9 -117q-16 -66 -77 -101q-50 -27 -132 -27q-78 0 -122 25q-64 38 -83 108 q-12 40 -12 118v188q0 82 14 132q22 77 88 115q46 27 122 27q75 0 120 -27q65 -39 81 -106q7 -27 7 -136v-129z"/>
<glyph glyph-name="eacute" horiz-adv-x="504" unicode="é" d="M253 1005h220l-186 -184h-126zM289 569q-4 7 -16 10q-15 5 -29 -6q-17 -14 -17 -128h75v24q0 68 -5 82q-6 16 -8 18zM476 313h-247v-54q0 -115 16 -128q7 -6 14 -6q9 0 18 8q17 14 17 110h185q0 -83 -9 -117q-16 -66 -77 -101q-50 -27 -132 -27q-78 0 -122 25 q-64 38 -83 108q-12 40 -12 118v188q0 82 14 132q22 77 88 115q46 27 122 27q75 0 120 -27q65 -39 81 -106q7 -27 7 -136v-129z"/>
<glyph glyph-name="ecircumflex" horiz-adv-x="504" unicode="ê" d="M175 1004h183l120 -191h-134l-78 79l-78 -78h-130zM289 569q-4 7 -16 10q-15 5 -29 -6q-17 -14 -17 -128h75v24q0 68 -5 82q-6 16 -8 18zM476 313h-247v-54q0 -115 16 -128q7 -6 14 -6q9 0 18 8q17 14 17 110h185q0 -83 -9 -117q-16 -66 -77 -101q-50 -27 -132 -27 q-78 0 -122 25q-64 38 -83 108q-12 40 -12 118v188q0 82 14 132q22 77 88 115q46 27 122 27q75 0 120 -27q65 -39 81 -106q7 -27 7 -136v-129z"/>
<glyph glyph-name="edieresis" horiz-adv-x="504" unicode="ë" d="M389 985q29 0 52 -18q36 -28 36 -69v-6q-3 -44 -45 -70q-20 -12 -44 -12q-18 0 -36 8q-42 19 -48 69q-1 6 -1 13q0 12 4 24q5 18 17 32t28 21q16 8 37 8zM137 984q33 0 56 -22q32 -28 32 -64q0 -6 -1 -12q-8 -48 -50 -68q-18 -8 -38 -8q-25 0 -41 10q-41 24 -44 72v5 q0 16 5 31q6 18 18 30t28 19t35 7zM289 569q-4 7 -16 10q-15 5 -29 -6q-17 -14 -17 -128h75v24q0 68 -5 82q-6 16 -8 18zM476 313h-247v-54q0 -116 16 -128q7 -6 14 -6q9 0 18 8q17 14 17 110h185q0 -83 -9 -117q-16 -66 -77 -101q-50 -27 -132 -27q-78 0 -122 25 q-64 38 -83 108q-12 40 -12 118v188q0 82 14 132q22 77 88 115q46 27 122 27q75 0 120 -27q65 -39 81 -106q7 -27 7 -136v-129z"/>
<glyph glyph-name="igrave" horiz-adv-x="263" unicode="ì" d="M-59 996h223l94 -187h-131zM51 704h183v-704h-183v704z"/>
<glyph glyph-name="iacute" horiz-adv-x="263" unicode="í" d="M113 1005h220l-186 -184h-125zM51 704h183v-704h-183v704z"/>
<glyph glyph-name="icircumflex" horiz-adv-x="263" unicode="î" d="M46 1011h183l119 -190h-133l-79 79l-78 -78h-128zM51 704h183v-704h-183v704z"/>
<glyph glyph-name="idieresis" horiz-adv-x="263" unicode="ï" d="M272 986q29 0 52 -18q36 -28 36 -69v-6q-3 -44 -45 -70q-20 -11 -43 -11q-19 0 -37 8q-42 19 -48 68q-1 6 -1 13q0 12 4 24q6 17 18 31t28 22t36 8zM20 985q33 0 56 -22q32 -28 32 -64q0 -6 -1 -12q-7 -46 -50 -67q-18 -9 -39 -9q-23 0 -39 10q-41 24 -44 72v5q0 16 5 31 q6 17 18 29t28 20q16 7 34 7zM51 704h183v-704h-183v704z"/>
<glyph glyph-name="ntilde" horiz-adv-x="521" unicode="ñ" d="M396 1042h65q-8 -81 -18 -112q-21 -63 -78 -89q-30 -13 -52 -13q-23 0 -54 16q-7 5 -27 17t-50 32q-28 19 -46 19q-13 0 -23 -7q-27 -17 -41 -70h-58q1 148 93 195q22 11 51 11q51 0 92 -27q23 -16 46 -31t39 -15q8 0 20 5q32 15 41 69zM490 0h-183v487v23q0 69 -16 81 q-9 6 -16 6q-8 0 -18 -12q-9 -9 -13 -15t-6 -7v-563h-186v704h184v-52q65 59 117 59q25 0 52 -12q60 -27 76 -88q9 -32 9 -113v-498z"/>
<glyph glyph-name="ograve" horiz-adv-x="513" unicode="ò" d="M28 992h224l94 -186h-131zM225 445v-182q0 -109 27 -124q11 -7 21 -7q8 0 14 5q26 17 26 126v184q0 113 -32 127q-8 4 -15 4q-14 0 -26 -15q-15 -17 -15 -118zM219 709q24 3 46 3q99 0 159 -51q46 -39 61 -112q8 -43 8 -116v-169q0 -89 -10 -125q-19 -72 -88 -110 q-55 -31 -124 -31q-72 0 -134 35q-66 37 -84 107q-10 33 -10 118v185q0 84 9 122q20 75 83 115q39 23 84 29z"/>
<glyph glyph-name="oacute" horiz-adv-x="518" unicode="ó" d="M253 1005h220l-186 -184h-126zM225 445v-182q0 -109 27 -124q11 -7 21 -7q8 0 14 5q26 17 26 126v184q0 113 -32 127q-8 4 -15 4q-14 0 -26 -15q-15 -17 -15 -118zM219 709q24 3 46 3q99 0 159 -51q46 -39 61 -112q8 -43 8 -116v-169q0 -89 -10 -125q-19 -72 -88 -110 q-55 -31 -124 -31q-72 0 -134 35q-66 37 -84 107q-10 33 -10 118v185q0 84 9 122q20 75 83 115q39 23 84 29z"/>
<glyph glyph-name="ocircumflex" horiz-adv-x="513" unicode="ô" d="M179 1011h183l120 -190h-134l-79 79l-77 -78h-130zM225 445v-182q0 -109 27 -124q11 -7 21 -7q8 0 14 5q26 17 26 126v184q0 113 -32 127q-8 4 -15 4q-14 0 -26 -15q-15 -17 -15 -118zM219 709q24 3 46 3q99 0 159 -51q46 -39 61 -112q8 -43 8 -116v-169q0 -89 -10 -125 q-19 -72 -88 -110q-55 -31 -124 -31q-72 0 -134 35q-66 37 -84 107q-10 33 -10 118v185q0 84 9 122q20 75 83 115q39 23 84 29z"/>
<glyph glyph-name="otilde" horiz-adv-x="513" unicode="õ" d="M399 1042h65q-9 -83 -18 -111q-23 -65 -79 -90q-30 -13 -52 -13q-23 0 -54 16q-7 5 -27 17t-50 32q-28 19 -45 19q-13 0 -23 -7q-28 -17 -41 -70h-58q1 148 92 195q22 11 51 11q52 0 93 -27q23 -16 45 -30t39 -15q11 0 20 4q33 15 42 69zM225 445v-182q0 -109 27 -124 q11 -7 21 -7q8 0 14 5q26 17 26 126v184q0 113 -32 127q-8 4 -15 4q-14 0 -26 -15q-15 -17 -15 -118zM219 709q24 3 46 3q99 0 159 -51q46 -39 61 -112q8 -43 8 -116v-169q0 -89 -10 -125q-19 -72 -88 -110q-55 -31 -124 -31q-72 0 -134 35q-66 37 -84 107q-10 33 -10 118 v185q0 84 9 122q20 75 83 115q39 23 84 29z"/>
<glyph glyph-name="odieresis" horiz-adv-x="513" unicode="ö" d="M399 985q29 0 52 -18q36 -28 36 -69v-6q-3 -44 -45 -70q-20 -12 -44 -12q-18 0 -36 8q-42 19 -48 69q-1 6 -1 13q0 12 4 24q5 18 17 32t28 21q16 8 37 8zM147 984q33 0 56 -22q32 -28 32 -64q0 -6 -1 -12q-8 -48 -50 -68q-18 -8 -38 -8q-25 0 -41 10q-41 24 -44 72v5 q0 16 5 31q6 18 18 30t28 19t35 7zM225 445v-182q0 -109 27 -124q11 -7 21 -7q8 0 14 5q26 17 26 126v184q0 113 -32 127q-8 4 -15 4q-14 0 -26 -15q-15 -17 -15 -118zM219 709q22 3 46 3q99 0 159 -51q46 -39 61 -112q8 -43 8 -116v-169q0 -89 -10 -125q-19 -72 -88 -110 q-55 -31 -124 -31q-72 0 -134 35q-66 37 -84 107q-10 33 -10 118v185q0 84 9 122q20 75 83 115q39 23 84 29z"/>
<glyph glyph-name="oslash" horiz-adv-x="513" unicode="ø" d="M365 711h110l-30 -71q48 -60 48 -207v-169q0 -89 -10 -125q-19 -72 -88 -110q-55 -31 -124 -31q-47 0 -92 15l-6 -13h-109l29 68q-36 37 -45 93q-2 14 -4 38t-1 59v185q0 84 9 122q20 75 83 115q39 23 84 29q25 3 48 3q50 0 92 -15zM313 329l-74 -175q6 -13 21 -19 q7 -3 13 -3q8 0 14 5q26 17 26 126v66zM225 380l74 174q-8 16 -18 20q-8 4 -15 4q-14 0 -26 -15q-15 -17 -15 -118v-65z"/>
<glyph glyph-name="ugrave" horiz-adv-x="529" unicode="ù" d="M42 1005h224l94 -187h-131zM53 704h185v-440q0 -116 26 -131q7 -4 14 -4q11 0 22 8q21 13 21 126v441h181v-422q0 -86 -9 -129q-20 -92 -84 -129q-47 -26 -133 -26q-81 0 -129 27q-66 38 -86 116q-4 17 -6 49t-2 82v432z"/>
<glyph glyph-name="uacute" horiz-adv-x="529" unicode="ú" d="M253 1005h220l-186 -184h-126zM53 704h185v-440q0 -116 26 -131q7 -4 14 -4q11 0 22 8q21 13 21 126v441h181v-422q0 -86 -9 -129q-20 -92 -84 -129q-47 -26 -133 -26q-81 0 -129 27q-66 38 -86 116q-4 17 -6 49t-2 82v432z"/>
<glyph glyph-name="ucircumflex" horiz-adv-x="529" unicode="û" d="M179 1011h183l120 -190h-134l-79 79l-77 -78h-130zM53 704h185v-440q0 -116 26 -131q7 -4 14 -4q11 0 22 8q21 13 21 126v441h181v-422q0 -86 -9 -129q-20 -92 -84 -129q-47 -26 -133 -26q-81 0 -129 27q-66 38 -86 116q-4 17 -6 49t-2 82v432z"/>
<glyph glyph-name="udieresis" horiz-adv-x="529" unicode="ü" d="M399 985q29 0 52 -18q36 -28 36 -69v-6q-3 -44 -45 -70q-20 -12 -44 -12q-18 0 -36 8q-42 19 -48 69q-1 6 -1 13q0 12 4 24q5 18 17 32t28 21q16 8 37 8zM147 984q33 0 56 -22q32 -28 32 -64q0 -6 -1 -12q-8 -48 -50 -68q-18 -8 -38 -8q-25 0 -41 10q-41 24 -44 72v5 q0 16 5 31q6 18 18 30t28 19t35 7zM53 704h185v-440q0 -116 26 -131q7 -4 14 -4q11 0 22 8q21 13 21 126v441h181v-422q0 -86 -9 -129q-20 -92 -84 -129q-47 -26 -133 -26q-81 0 -129 27q-66 38 -86 116q-4 17 -6 49t-2 82v432z"/>
<glyph glyph-name="yacute" horiz-adv-x="457" unicode="ý" d="M253 992h220l-186 -184h-126zM5 704h193l37 -417l41 417h190l-165 -628q-17 -61 -31 -90q-29 -59 -76 -79q-27 -11 -59 -11q-49 0 -101 21v162q47 -35 75 -35q17 0 31 11q19 15 19 49q0 18 -17 83z"/>
<glyph glyph-name="ydieresis" horiz-adv-x="457" unicode="ÿ" d="M369 985q29 0 52 -18q36 -28 36 -69v-6q-3 -44 -45 -70q-20 -12 -44 -12q-18 0 -36 8q-42 19 -48 69q-1 6 -1 13q0 12 4 24q5 18 17 32t28 21q16 8 37 8zM117 984q33 0 56 -22q32 -28 32 -64q0 -6 -1 -12q-8 -48 -50 -68q-18 -8 -38 -8q-25 0 -41 10q-41 24 -44 72v5 q0 16 5 31q6 18 18 30t28 19t35 7zM5 704h193l37 -417l41 417h190l-165 -628q-17 -61 -31 -90q-29 -59 -76 -79q-27 -11 -59 -11q-49 0 -101 21v162q47 -35 75 -35q17 0 31 11q19 15 19 49q0 18 -17 83z"/>
<glyph glyph-name="OE" horiz-adv-x="769" unicode="Œ" d="M354 895h392v-147h-194v-224h181v-145h-185v-242h193v-137h-381q-14 -2 -26 -2h-25q-102 0 -164 35q-65 37 -84 108q-11 39 -11 122v357q0 81 12 128q19 80 82 120q33 21 85 29q25 4 52 4q3 -1 7 -1q31 0 66 -5zM249 625v-356q0 -111 27 -127q11 -7 22 -7l18 5 q30 18 30 129v351q0 113 -26 130q-10 7 -21 7q-9 0 -18 -5q-32 -18 -32 -127z"/>
<glyph glyph-name="oe" horiz-adv-x="770" unicode="œ" d="M557 569q-4 7 -16 10q-15 5 -29 -6q-17 -14 -17 -128h75v24q0 68 -5 82q-6 16 -8 18zM744 313h-247v-54q0 -116 16 -128q7 -6 14 -6q9 0 18 8q17 14 17 110h185q0 -83 -9 -117q-16 -66 -77 -101q-50 -27 -132 -27q-83 0 -133 32l-1 -1q-55 -31 -124 -31q-72 0 -134 35 q-66 37 -84 107q-10 33 -10 118v185q0 84 9 122q20 75 83 115q39 23 84 29q22 3 46 3q81 0 137 -35q50 34 134 34q75 0 120 -27q65 -39 81 -106q7 -27 7 -136v-129zM312 209v40v188v24t1 20q-5 81 -32 93q-8 4 -15 4q-14 0 -26 -15q-15 -17 -15 -118v-182q0 -109 27 -124 q11 -7 21 -7q8 0 14 5q22 13 25 72z"/>
<glyph glyph-name="Scaron" horiz-adv-x="508" unicode="Š" d="M349 1015h-183l-119 191h133l79 -79l77 77h130zM492 642h-195v56q-3 48 -19 58q-6 4 -14 4t-16 -4q-18 -10 -23 -46q-1 -7 -1 -15q0 -76 85 -159l35 -34q84 -83 118 -140q34 -56 34 -120q0 -35 -9 -78q-23 -111 -132 -150q-45 -16 -96 -16q-84 0 -145 48q-82 66 -82 223 h198v-8q0 -5 -2 -13v-16t-1 -13q0 -46 20 -61q8 -9 17 -9q6 0 12 3q22 10 22 56q0 55 -81 141l-51 53q-78 81 -109 136q-31 56 -31 116q0 42 15 99q28 106 136 139q28 9 70 9q117 0 176 -52q69 -60 69 -207z"/>
<glyph glyph-name="scaron" horiz-adv-x="469" unicode="š" d="M361 813h-183l-120 191h134l78 -79l78 78h130zM442 490h-161v48q-3 28 -19 38q-8 5 -16 5l-16 -4q-17 -10 -19 -37q0 -18 23 -43q4 -5 16 -15t33 -28l19 -16q46 -38 76 -67t44 -48q34 -46 34 -106q0 -11 -1 -25t-3 -28q-15 -108 -108 -149q-45 -17 -103 -17 q-85 0 -134 36t-62 90q-7 27 -7 105h168q0 -81 19 -94q7 -5 15 -5t17 5q19 12 19 42q0 49 -75 108l-24 19q-83 65 -112 106q-34 46 -34 106q0 19 3 43q14 98 110 139q33 14 90 14q96 0 146 -35q43 -30 55 -87q1 -4 3 -29t4 -71z"/>
<glyph glyph-name="Ydieresis" horiz-adv-x="498" unicode="Ÿ" d="M384 1169q28 0 52 -18q37 -29 36 -75q-2 -45 -45 -70q-20 -11 -43 -11q-33 -1 -57 21t-28 55q-1 6 -1 12q0 31 22 56q25 30 64 30zM133 1168q31 0 56 -22q31 -28 31 -64q0 -6 -1 -12q-7 -46 -50 -67q-18 -9 -39 -9q-23 0 -39 10q-42 25 -45 72v5q0 16 5 31q6 18 18 30 q13 12 29 19t35 7zM11 895h192l45 -243l52 243h196l-155 -488v-407h-200v410z"/>
<glyph glyph-name="florin" horiz-adv-x="443" unicode="ƒ" d="M423 906l-11 -137h-13q-34 0 -43 -9q-15 -15 -28 -211h76v-139h-85l-24 -301q-3 -37 -7 -63t-7 -40q-23 -71 -80 -96q-36 -14 -94 -14q-19 0 -39 2t-39 3l8 127q8 -1 15 -1q23 0 36 8q18 10 24 114l16 261h-66v139h82l7 140q7 156 94 203q38 20 98 20q32 0 80 -6z"/>
<glyph glyph-name="circumflex" horiz-adv-x="496" unicode="ˆ" d="M156 950h183l120 -190h-132l-79 79l-78 -78h-131z"/>
<glyph glyph-name="tilde" horiz-adv-x="521" unicode="˜" d="M422 966h65q-9 -84 -18 -112q-22 -64 -79 -89q-30 -13 -53 -13q-24 0 -53 16q-18 10 -77 49q-27 18 -45 18q-13 0 -23 -7q-28 -17 -41 -69h-59q4 148 93 195q22 11 51 11q52 0 93 -27q24 -16 46 -30t38 -15q11 0 20 4q33 15 42 69z"/>
<glyph glyph-name="endash" horiz-adv-x="605" unicode="–" d="M41 502h527v-163h-527v163z"/>
<glyph glyph-name="emdash" horiz-adv-x="1006" unicode="—" d="M79 504h927v-169h-927v169z"/>
<glyph glyph-name="quoteleft" horiz-adv-x="278" unicode="‘" d="M203 895l24 -37q-7 -4 -16 -9t-20 -13q-31 -22 -27 -37q20 -9 32 -17t17 -13q21 -18 25 -49q1 -7 1 -13q0 -41 -34 -69q-25 -22 -64 -22q-49 0 -77 33q-28 29 -28 78q0 61 31 96q41 47 136 72z"/>
<glyph glyph-name="quoteright" horiz-adv-x="278" unicode="’" d="M79 616l-24 37q7 4 16 9t20 13q31 22 27 37q-20 10 -32 18t-17 12q-20 18 -25 48q-1 5 -1 10q-1 16 7 34q10 24 28 39q22 21 60 21q52 0 80 -31t28 -80q0 -61 -31 -96q-41 -48 -136 -71z"/>
<glyph glyph-name="quotesinglbase" horiz-adv-x="278" unicode="‚" d="M79 -91l-24 37q7 4 16 9t20 13q31 22 27 36q-20 10 -32 18t-17 12q-20 18 -25 48q-1 5 -1 10q-1 16 7 34q10 24 28 39q22 21 60 21q52 0 80 -31t28 -80q0 -61 -31 -95q-41 -48 -136 -71z"/>
<glyph glyph-name="quotedblleft" horiz-adv-x="518" unicode="“" d="M432 895l24 -37q-26 -14 -37 -22q-30 -23 -26 -37q36 -19 49 -30q20 -18 24 -49q1 -8 1 -15q0 -41 -34 -67q-23 -22 -62 -22q-48 0 -77 30t-29 79q0 61 31 98q41 47 136 72zM203 895l24 -37q-7 -4 -16 -9t-20 -13q-31 -22 -27 -37q20 -9 32 -17t17 -13q21 -18 25 -49 q1 -7 1 -13q0 -41 -34 -69q-25 -22 -64 -22q-49 0 -77 33q-28 29 -28 78q0 61 31 96q41 47 136 72z"/>
<glyph glyph-name="quotedblright" horiz-adv-x="518" unicode="”" d="M307 616l-24 37q13 8 23 13t14 9q31 22 27 37q-19 10 -31 18l-18 12q-20 18 -25 48q-1 5 -1 9q0 15 8 35q10 24 26 39q25 21 62 21q50 0 78 -30t28 -79q0 -61 -31 -98q-41 -48 -136 -71zM79 616l-24 37q7 4 16 9t20 13q31 22 27 37q-20 10 -32 18t-17 12q-20 18 -25 48 q-1 5 -1 10q-1 16 7 34q10 24 28 39q22 21 60 21q52 0 80 -31t28 -80q0 -61 -31 -96q-41 -48 -136 -71z"/>
<glyph glyph-name="quotedblbase" horiz-adv-x="518" unicode="„" d="M307 -91l-24 37q13 8 23 13t14 9q31 22 27 36q-19 10 -31 18l-18 12q-20 18 -25 48v7q0 17 7 37q9 24 26 39q25 21 62 21q50 0 78 -30t28 -79q0 -62 -31 -97q-41 -48 -136 -71zM79 -91l-24 37q7 4 16 9t20 13q31 22 27 36q-20 10 -32 18t-17 12q-20 18 -25 48q-1 5 -1 10 q-1 16 7 34q10 24 28 39q22 21 60 21q52 0 80 -31t28 -80q0 -61 -31 -95q-41 -48 -136 -71z"/>
<glyph glyph-name="dagger" horiz-adv-x="603" unicode="†" d="M232 912h137v-194h194v-135h-194v-684h-137v684h-194v135h194v194z"/>
<glyph glyph-name="bullet" horiz-adv-x="272" unicode="•" d="M141 469q37 0 62 -22q37 -32 37 -76q0 -6 -1 -13q-6 -51 -55 -76q-19 -10 -45 -10q-25 0 -45 11q-47 27 -52 80v10q0 37 26 65q30 31 73 31z"/>
<glyph glyph-name="ellipsis" horiz-adv-x="816" unicode="…" d="M424 195q39 0 65 -23q36 -32 36 -74q0 -65 -60 -92q-18 -7 -40 -7q-28 0 -50 12q-47 29 -48 83v5q0 19 6 35q7 18 21 32t31 21q18 8 39 8zM152 195q39 0 65 -23q36 -32 36 -74q0 -65 -60 -92q-18 -7 -40 -7q-28 0 -50 12q-47 29 -48 83v5q0 19 6 35q7 18 21 32t31 21 q18 8 39 8zM696 195q39 0 65 -23q36 -32 36 -74q0 -65 -60 -92q-18 -7 -40 -7q-28 0 -50 12q-47 29 -48 83v5q0 19 6 35q7 18 21 32t31 21q18 8 39 8z"/>
<glyph glyph-name="perthousand" horiz-adv-x="1323" unicode="‰" d="M1087 250q1 -46 1 -74t1 -40q3 -41 16 -45q13 -5 23 -5q9 0 16 4q15 11 18 55q1 7 1 33v75v76t-1 32q-1 29 -18 46q-4 4 -19 4q-16 0 -20 -4q-15 -12 -17 -44q-1 -5 -1 -33v-80zM1082 504q6 2 14 2h16q93 0 137 -38q36 -31 45 -85q2 -8 2 -30v-59v-92q0 -86 -3 -102 q-12 -56 -66 -87q-38 -20 -101 -20q-65 0 -105 22q-49 29 -62 92q-6 27 -6 100v71q0 145 43 187q32 30 86 39zM180 639v-75t2 -39q3 -41 16 -45q12 -5 23 -5q9 0 17 4q15 11 18 55q1 9 1 36v72v74q0 27 -1 34q-3 30 -18 45q-5 5 -20 5q-13 0 -20 -5q-14 -13 -17 -43 q-1 -7 -1 -35v-78zM691 250q1 -46 1 -74t1 -40q3 -41 16 -45q13 -5 23 -5q9 0 16 4q15 11 18 55q1 7 1 33v75v76t-1 32q-1 29 -18 46q-4 4 -19 4q-16 0 -20 -4q-15 -12 -17 -44q-1 -5 -1 -33v-80zM686 504q6 2 14 2h16q93 0 137 -38q36 -31 45 -85q2 -8 2 -30v-59v-92 q0 -86 -3 -102q-12 -56 -66 -87q-38 -20 -101 -20q-65 0 -105 22q-49 29 -62 92q-6 27 -6 100v71q0 145 43 187q32 30 86 39zM635 895h102l-419 -895h-99zM208 899q89 0 133 -36q36 -30 47 -86q3 -20 3 -93v-93q0 -76 -6 -101q-13 -64 -65 -92q-39 -21 -101 -21 q-67 0 -107 25q-45 29 -58 91q-6 30 -6 102v82q0 66 6 99q13 69 58 98q40 25 96 25z"/>
<glyph glyph-name="guilsinglleft" horiz-adv-x="316" unicode="‹" d="M130 696h151l-88 -353l74 -343h-148l-80 352z"/>
<glyph glyph-name="guilsinglright" horiz-adv-x="316" unicode="›" d="M190 696l91 -344l-80 -352h-148l74 343l-88 353h151z"/>
<glyph glyph-name="trademark" horiz-adv-x="659" unicode="™" d="M290 896h98l54 -227l63 227h101l8 -465h-101v233l-47 -233h-54l-42 233l-8 -233h-98zM36 896h225v-77h-62v-388h-101v389h-62v76z"/>
<glyph glyph-name="longs" horiz-adv-x="272" unicode="" d="M239 0h-187v568h-33v136h36q0 64 8 94q15 50 65 76q29 16 80 19q10 1 33 1t60 1v-130q-43 -3 -52 -14q-8 -10 -10 -54v-697z"/>
<glyph glyph-name="DST" horiz-adv-x="1426" unicode="" d="M1003 136v94q1 42 -25 65t-71 23h-246q-41 0 -41 37v95q0 43 41 43h244q23 0 43 -21h50q-13 76 -89 76h-246q-45 0 -71 -28t-27 -74v-89q0 -42 25 -67t67 -25h250q45 0 45 -45v-76q0 -45 -61 -45h-250q-22 0 -22 21q0 18 20 18h270v53h-279q-29 0 -47 -21t-18 -52 q0 -30 20 -50t50 -20h282q39 0 63 24t23 64zM1390 562q0 30 -19 51t-46 21h-148q-37 0 -37 35v131h275v-837h-1404v837h429l2 -682q0 -6 -6 -14t-12 -7q-19 0 -19 21v151q0 44 -31 75l-179 177q-19 19 -52 19t-56 -17q-26 -20 -26 -51v-330q0 -96 88 -96h82q63 0 77 72h-53 q-12 -15 -25 -21h-81q-35 0 -35 43v310q0 5 8 32q7 6 17 6q13 0 27 -14l95 -93q85 -84 87 -93q2 -23 2 -65v-104q0 -33 20 -55t52 -22q30 0 52 22t21 52l1 684h587v-131q0 -88 116 -88q7 1 19 1t28 1t28 1t20 1q41 0 41 -19q0 -21 -40 -21q-8 1 -20 1t-29 1q-32 3 -48 3 q-115 0 -115 -96v-322q0 -70 72 -86v56q-19 12 -19 42v302q0 45 35 45h146q29 0 51 21t22 50z"/>
</font>
</defs>
</svg>
